<?xml version="1.0" encoding="UTF-8"?><svg id="Livello_1" xmlns="http://www.w3.org/2000/svg" xmlns:xlink="http://www.w3.org/1999/xlink" viewBox="0 0 300 74"><defs><style>.cls-1{fill:url(#Sfumatura_senza_nome);}.cls-2{fill:url(#Sfumatura_senza_nome-6);}.cls-3{fill:url(#Sfumatura_senza_nome-4);}.cls-4{fill:url(#Sfumatura_senza_nome-5);}.cls-5{fill:url(#Sfumatura_senza_nome-3);}.cls-6{fill:url(#Sfumatura_senza_nome-2);}</style><linearGradient id="Sfumatura_senza_nome" x1="-3.82" y1="70.5" x2="173.86" y2="-107.18" gradientTransform="translate(0 76.48) scale(1 -1)" gradientUnits="userSpaceOnUse"><stop offset="0" stop-color="#fba303"/><stop offset=".29" stop-color="#eb0d00"/><stop offset=".43" stop-color="#f1171d"/><stop offset=".58" stop-color="#f92441"/><stop offset=".76" stop-color="#8e09a4"/><stop offset=".88" stop-color="#2a77ff"/><stop offset=".98" stop-color="#1b48e8"/></linearGradient><linearGradient id="Sfumatura_senza_nome-2" x1="27.1" y1="101.42" x2="204.77" y2="-76.26" xlink:href="#Sfumatura_senza_nome"/><linearGradient id="Sfumatura_senza_nome-3" x1="59.06" y1="133.38" x2="236.74" y2="-44.3" xlink:href="#Sfumatura_senza_nome"/><linearGradient id="Sfumatura_senza_nome-4" x1="85.81" y1="160.13" x2="263.49" y2="-17.55" xlink:href="#Sfumatura_senza_nome"/><linearGradient id="Sfumatura_senza_nome-5" x1="113.85" y1="188.17" x2="291.53" y2="10.49" xlink:href="#Sfumatura_senza_nome"/><linearGradient id="Sfumatura_senza_nome-6" x1="129.97" y1="204.29" x2="307.65" y2="26.61" xlink:href="#Sfumatura_senza_nome"/></defs><path class="cls-1" d="m33.46,13.74H4.92V1.79h49.34L20.52,60.13h29.23v11.94H0L33.46,13.74h0Z"/><path class="cls-6" d="m112.94,31.17c-.75-2.63-1.85-5.08-3.31-7.38-1.45-2.3-3.21-4.27-5.27-5.91-2.06-1.63-4.38-2.93-6.96-3.86-2.57-.95-5.32-1.41-8.22-1.41s-5.65.46-8.23,1.41c-2.58.93-4.9,2.23-6.96,3.87-2.06,1.63-3.85,3.6-5.34,5.91-1.5,2.29-2.58,4.75-3.22,7.38h47.51Zm-23.75,42.59c-5.06,0-9.82-.96-14.27-2.88-4.45-1.91-8.33-4.54-11.66-7.86-3.32-3.32-5.95-7.19-7.87-11.6-1.92-4.4-2.88-9.13-2.88-14.19s.96-9.84,2.88-14.34c1.92-4.51,4.55-8.39,7.87-11.66,3.33-3.28,7.21-5.89,11.66-7.81,4.46-1.92,9.21-2.88,14.27-2.88s9.82.96,14.26,2.88c4.46,1.92,8.32,4.53,11.6,7.81,3.28,3.27,5.88,7.16,7.8,11.66,1.92,4.5,2.88,9.28,2.88,14.34v2.1c0,.75-.09,2.02-.27,3.8h-60.02c.65,2.72,1.72,5.21,3.22,7.45,1.5,2.25,3.28,4.22,5.34,5.91,2.06,1.68,4.38,2.99,6.96,3.94,2.58.93,5.32,1.4,8.23,1.4,2.25,0,4.49-.59,6.75-1.77,2.25-1.16,4.4-2.73,6.46-4.7l8.43,8.43c-3.1,2.99-6.48,5.41-10.19,7.24-3.7,1.82-7.51,2.73-11.45,2.73h0Z"/><path class="cls-5" d="m144.6,72.08h-12.09v-35.15c0-5.06,1.04-9.84,3.1-14.34,2.06-4.49,4.87-8.38,8.43-11.66s7.71-5.88,12.44-7.8c4.73-1.92,9.82-2.88,15.26-2.88v12.09c-3.74,0-7.26.64-10.54,1.9-3.28,1.27-6.17,3.02-8.65,5.28-2.47,2.25-4.42,4.87-5.83,7.87-1.4,2.99-2.11,6.18-2.11,9.55v35.14h-.01Z"/><path class="cls-3" d="m206.25.24c5.07,0,9.81.96,14.27,2.88,4.44,1.92,8.33,4.52,11.66,7.8,3.32,3.28,5.95,7.17,7.87,11.66,1.92,4.5,2.88,9.28,2.88,14.35s-.95,9.82-2.88,14.26c-1.92,4.46-4.55,8.31-7.87,11.6-3.33,3.28-7.22,5.87-11.66,7.8-4.46,1.92-9.2,2.88-14.27,2.88s-9.79-.96-14.2-2.88c-4.4-1.93-8.27-4.53-11.59-7.8-3.33-3.29-5.96-7.14-7.86-11.6-1.92-4.45-2.88-9.2-2.88-14.27s.96-9.84,2.88-14.34c1.91-4.49,4.53-8.38,7.86-11.66,3.32-3.28,7.19-5.88,11.59-7.8,4.41-1.92,9.14-2.88,14.2-2.88h0Zm0,12.09c-3.37,0-6.56.64-9.55,1.9-3,1.27-5.63,3.02-7.88,5.28-2.25,2.25-4,4.87-5.27,7.87-1.26,2.99-1.89,6.19-1.89,9.55s.63,6.55,1.89,9.56c1.27,2.99,3.02,5.6,5.27,7.8s4.88,3.96,7.88,5.27c2.99,1.31,6.18,1.97,9.55,1.97s6.57-.66,9.55-1.97c3.01-1.31,5.63-3.07,7.88-5.27s4-4.8,5.27-7.8c1.26-3.01,1.9-6.19,1.9-9.56s-.64-6.56-1.9-9.55c-1.26-3-3.02-5.63-5.27-7.87-2.25-2.26-4.87-4.01-7.88-5.28-2.99-1.26-6.18-1.9-9.55-1.9h0Z"/><path class="cls-4" d="m267.76.24v71.87h-12.09V12.36h-8V.25s20.09,0,20.09,0h0Z"/><path class="cls-2" d="m300,.24v71.87h-12.08V12.36h-8.02V.25h20.1Z"/></svg>